<?xml version="1.0" encoding="UTF-8"?>
<svg xmlns="http://www.w3.org/2000/svg" viewBox="0 0 512 512" width="512" height="512">
  <rect width="512" height="512" rx="112.6" ry="112.6" fill="#C8FF20"/>
  <g transform="translate(43.986, -16.476) scale(1.22269)">
  <path d="M263.46,277.18c-.52-.24-.95-.49-1.31-.81-.66-.58-.57-1.61.32-1.78l1,2.59Z" fill="#0A0A0A"/>
  <path d="M266.29,150c-.29-.5.16-1.09.62-1.2l-.62,1.2Z" fill="#0A0A0A"/>
  <path d="M248.46,159.74l.43-1.17c5.6-11.4,11.61-22.64,18.37-33.51,5.49-8.85,11.75-17.2,18.62-25.02l2.4-2.73c2.5-2.84,4.97-5.46,7.79-7.96s2.44-6.61-.46-8.7c-4.07-2.95-8.21-5.45-12.58-7.81-2.23-1.2-4.97-.88-6.88.78-3.15,2.75-6.22,5.6-9.18,8.55l-49,48.8-133.85,133.85c-11.59,11.59-23.22,21.68-32.05,36.12-.39.65-.84,1.34-1.3,2.08-2.46,3.96-2.42,8.98.06,12.92,1.8,2.87,3.65,5.71,5.65,8.5,3.29,4.59,10.16,4.64,13.48.07,9.1-12.56,19.41-23.61,30.88-33.75,1.11-.98,1.53-1.06,4.63-3.88,22.7-18.59,50.25-29.13,79.71-31.69,3.94-.34,6.85-3.85,6.52-7.79l-1.01-12.37c-.29-3.52-3.4-6.12-6.92-5.8-8.32.77-16.33,2.31-24.79,4.01-2.06.41-3.41-2.1-1.92-3.59l42.44-42.45c1.73-1.73,4.67-.16,4.16,2.24-8.79,42.08-6.31,84.85,16.59,120.91,7.87,13.52,17.86,25.73,28.6,37.67l19.89,22.13c3.4,3.78,9.01,4.62,13.37,2l11.46-6.89c3.58-2.15,4.31-7.03,1.52-10.14l-9.76-10.89c-15.04-16.99-30.61-39.46-40.73-57.21-.3-.81-.5-1.39-.78-2.12-11.32-22.8-15.24-47.77-11.39-73.4,2.48-17.97,8.4-34.43,15.42-50.56-.29-.5.16-1.09.62-1.2Z" fill="#0A0A0A"/>
  </g>
</svg>
